<svg viewBox="0 0 63 69" version="1.1" xmlns="http://www.w3.org/2000/svg" xmlns:xlink="http://www.w3.org/1999/xlink">
    <title>Backward</title>
    <g id="Backward" stroke="none" stroke-width="1" fill="none" fill-rule="evenodd">
        <path d="M30.7053516,67.1699219 C47.3166797,67.1699219 61.0276172,53.4589844 61.0276172,36.8476562 C61.0276172,22.3164062 50.5100391,10.0117187 36.7698047,7.16992187 L36.7698047,2.86328125 C36.7698047,0.63671875 35.0998828,-0.0078125 33.2834766,1.31054687 L23.3811328,8.3125 C21.8869922,9.39648437 21.8869922,11.0371094 23.3811328,12.0917969 L33.2541797,19.1230469 C35.0705859,20.4414062 36.7698047,19.8554687 36.7698047,17.5703125 L36.7698047,13.3515625 C47.2580859,16.0175781 54.9338672,25.4804687 54.9338672,36.8476562 C54.9338672,50.2949219 44.1526172,61.1054687 30.7053516,61.1054687 C17.2580859,61.1054687 6.44753906,50.2949219 6.47683594,36.8476562 C6.50613281,29.0253906 10.1682422,22.1992188 15.9104297,17.7753906 C17.2873828,16.5742187 17.7268359,14.8457031 16.6721484,13.4101562 C15.7053516,12.0332031 13.8010547,11.7988281 12.2190234,13.0878906 C5.09988281,18.4199219 0.412382813,27.3847656 0.412382813,36.8476562 C0.412382813,53.4589844 14.1233203,67.1699219 30.7053516,67.1699219 Z M37.7951953,49.3574219 C42.5705859,49.3574219 45.8811328,44.7871094 45.8811328,37.609375 C45.8811328,30.34375 42.5705859,25.7734375 37.7951953,25.7734375 C32.9905078,25.7734375 29.7385547,30.1972656 29.7385547,37.609375 C29.7385547,44.9628906 32.9905078,49.3574219 37.7951953,49.3574219 Z M22.6780078,49.09375 C23.9963672,49.09375 24.8459766,48.2148437 24.8459766,46.8085937 L24.8459766,28.703125 C24.8459766,26.9746094 23.8791797,25.9785156 22.3557422,25.9785156 C21.4182422,25.9785156 20.7444141,26.2714844 19.6018359,27.1210937 L15.7932422,29.8164062 C15.0315234,30.4316406 14.6799609,31.0175781 14.6799609,31.8378906 C14.6799609,32.8925781 15.5002734,33.7714844 16.5549609,33.7714844 C17.1701953,33.7714844 17.5510547,33.625 18.1369922,33.0976562 L20.5979297,31.1347656 L20.5979297,46.8085937 C20.5979297,48.1855469 21.4182422,49.09375 22.6780078,49.09375 Z M37.8244922,45.3730469 C35.4807422,45.3730469 34.0451953,42.5019531 34.0451953,37.609375 C34.0451953,32.6289062 35.4514453,29.7578125 37.8244922,29.7578125 C40.1682422,29.7578125 41.5451953,32.5996094 41.5451953,37.609375 C41.5451953,42.5019531 40.1389453,45.3730469 37.8244922,45.3730469 Z" id="􀎂" fill="#FFFFFF" fill-rule="nonzero"></path>
    </g>
</svg>
