<svg viewBox="0 0 63 69" version="1.1" xmlns="http://www.w3.org/2000/svg" xmlns:xlink="http://www.w3.org/1999/xlink">
    <title>Forward</title>
    <g id="Forward" stroke="none" stroke-width="1" fill="none" fill-rule="evenodd">
        <path d="M30.7053516,67.1699219 C47.3166797,67.1699219 61.0276172,53.4589844 61.0276172,36.8476563 C61.0276172,27.3847656 56.3108203,18.4199219 49.2209766,13.0878906 C47.6389453,11.7988281 45.7053516,12.0332031 44.7385547,13.4101563 C43.6838672,14.8457031 44.1526172,16.5742188 45.5002734,17.7753906 C51.2717578,22.1992188 54.9338672,29.0253906 54.9631641,36.8476563 C54.9924609,50.2949219 44.1526172,61.1054688 30.7053516,61.1054688 C17.2580859,61.1054688 6.50613281,50.2949219 6.50613281,36.8476563 C6.50613281,25.4804688 14.1819141,16.0175781 24.6701953,13.3515625 L24.6701953,17.5996094 C24.6701953,19.8554688 26.3401172,20.4707031 28.1565234,19.1523438 L38.0588672,12.1503906 C39.5237109,11.0664063 39.5530078,9.42578125 38.0588672,8.37109375 L28.1858203,1.33984375 C26.3401172,0.021484375 24.6701953,0.607421875 24.6701953,2.89257813 L24.6701953,7.16992188 C10.9006641,10.0117188 0.412382813,22.3164063 0.412382813,36.8476563 C0.412382813,53.4589844 14.1233203,67.1699219 30.7053516,67.1699219 Z M37.7951953,49.3574219 C42.5705859,49.3574219 45.8811328,44.7871094 45.8811328,37.609375 C45.8811328,30.34375 42.5705859,25.7734375 37.7951953,25.7734375 C33.0198047,25.7734375 29.7385547,30.1972656 29.7385547,37.609375 C29.7385547,44.9628906 33.0198047,49.3574219 37.7951953,49.3574219 Z M22.7658984,49.09375 C24.0842578,49.09375 24.9338672,48.2148438 24.9338672,46.8085938 L24.9338672,28.703125 C24.9338672,26.9746094 23.9670703,25.9785156 22.4143359,25.9785156 C21.5061328,25.9785156 20.8323047,26.2714844 19.6604297,27.1210938 L15.8811328,29.8164063 C15.1194141,30.4316406 14.7678516,31.0175781 14.7678516,31.8378906 C14.7678516,32.8925781 15.5881641,33.7714844 16.6135547,33.7714844 C17.2580859,33.7714844 17.6096484,33.625 18.2248828,33.0976563 L20.6858203,31.1347656 L20.6858203,46.8085938 C20.6858203,48.1855469 21.5061328,49.09375 22.7658984,49.09375 Z M37.8244922,45.3730469 C35.4807422,45.3730469 34.0451953,42.5019531 34.0451953,37.609375 C34.0451953,32.6289063 35.4807422,29.7578125 37.8244922,29.7578125 C40.1682422,29.7578125 41.5744922,32.5996094 41.5744922,37.609375 C41.5744922,42.5019531 40.1389453,45.3730469 37.8244922,45.3730469 Z" id="ô€Ž" fill="#FFFFFF" fill-rule="nonzero"></path>
    </g>
</svg>
