<?xml version="1.0" encoding="UTF-8"?>
<svg height="30px" viewBox="0 0 161 46" version="1.1" xmlns="http://www.w3.org/2000/svg" xmlns:xlink="http://www.w3.org/1999/xlink">
    <title>Logo</title>
    <g id="Logo" stroke="none" stroke-width="1" fill="none" fill-rule="evenodd">
        <path d="M23.068832,45 L23.068832,8.49987164 L37.2563819,8.49987164 L37.2563819,-0.000158250332 L0.381252198,-0.000158250332 L0.381252198,8.49987164 L14.5688021,8.49987164 L14.5688021,45 L23.068832,45 Z M51.4413137,45.9375033 C54.5038245,45.8125029 57.8788364,44.8124993 60.5663458,42.6874919 L60.5663458,45 L68.0663722,45 L68.0663722,11.2498813 L59.5038421,11.2498813 L59.5038421,25.937433 C59.5038421,28.2499411 59.4413419,30.5624492 59.1288408,32.0624545 C58.7538395,33.9374611 57.8788364,35.4374664 56.628832,36.3749697 C55.503828,37.1874725 54.1913234,37.6249741 52.6288179,37.6874743 C50.3163098,37.6874743 48.5038034,37.0624721 47.3162992,35.8124677 C45.5662931,34.0624615 45.0662913,31.1874514 45.0662913,28.1249407 L45.0662913,11.2498813 L36.441261,11.2498813 L36.441261,28.1249407 C36.441261,33.9999613 37.003763,38.4999771 41.003777,42.1874901 C43.6912865,44.6249987 47.6913006,46.0625037 51.4413137,45.9375033 Z M92.626326,45.9375033 C97.0638417,45.9375033 101.501357,43.9999965 104.251367,40.5624844 C107.126377,37.0624721 108.188881,32.7499569 108.188881,28.1249407 C108.188881,23.4374242 106.876376,18.9999086 104.251367,15.6873969 C101.376357,12.1248844 96.876341,10.312378 92.1888245,10.312378 C89.188814,10.312378 86.3138038,11.1873811 83.9387955,12.6248861 L83.9387955,-0.000158250332 L75.3762654,-0.000158250332 L75.3762654,45 L82.8762918,45 L82.8762918,42.9374927 C85.501301,44.9374998 88.8763129,45.9375033 92.626326,45.9375033 Z M91.2513212,38.3749767 C88.8138126,38.3749767 86.7513054,37.6249741 85.2513001,35.9999683 C83.6262944,34.187462 82.8762918,31.1874514 82.8762918,28.1249407 C82.8762918,25.0624299 83.6262944,22.1249196 85.2513001,20.249913 C86.6263049,18.6249072 88.626312,17.8749046 90.9388201,17.8749046 C93.75133,17.8749046 95.9388377,18.6874075 97.3763428,20.8749152 C98.5638469,22.6249213 99.1888491,25.2499305 99.1888491,28.1249407 C99.1888491,30.9999508 98.6888474,33.62496 97.5013432,35.3749662 C96.0638381,37.5624738 93.6263296,38.3749767 91.2513212,38.3749767 Z M142.061365,40.4999842 C142.811368,39.6249811 143.49887,38.6874778 144.061372,37.7499745 L135.623843,34.0624615 C135.373842,34.3749626 135.248841,34.749964 134.998841,35.1249653 C133.561335,36.9999719 131.311328,37.9999754 128.811319,37.9999754 C126.37381,37.9999754 124.061302,36.9999719 122.686297,35.1249653 C121.686294,33.8124607 121.186292,32.1874549 120.936291,30.4374488 L145.748878,30.4374488 C145.811379,29.6874462 145.873879,28.8749433 145.873879,28.1249407 C145.873879,23.6249248 144.561374,19.3124097 141.748864,15.9373978 C138.623853,12.1873846 133.811336,10.312378 128.811319,10.312378 C123.811301,10.312378 118.998784,12.2498848 115.873773,15.9373978 C113.061263,19.3124097 111.873759,23.4374242 111.748759,28.1249407 C111.623758,32.5624563 112.998763,36.8124712 115.873773,40.3124835 C118.998784,44.0624967 123.811301,45.6875024 128.811319,45.9375033 C133.811336,46.1875042 138.686354,44.2499974 142.061365,40.4999842 Z M136.311345,23.8749257 L121.311292,23.8749257 C121.623794,22.8749222 122.061295,21.9374189 122.686297,21.124916 C124.061302,19.1874092 126.37381,18.2499059 128.811319,18.2499059 C131.311328,18.2499059 133.561335,19.1874092 134.998841,21.124916 C135.561343,21.9374189 135.998844,22.8749222 136.311345,23.8749257 Z M159.9338,45 L159.9338,36.4999701 L151.43377,36.4999701 L151.43377,45 L159.9338,45 Z" id="Tube." fill="#FFFFFF" fill-rule="nonzero"></path>
    </g>
</svg>
